<svg width="47" height="47" viewBox="0 0 47 47" fill="none" xmlns="http://www.w3.org/2000/svg">
<path d="M13.3438 6C11.3961 6 9.52815 6.77371 8.15093 8.15093C6.77371 9.52815 6 11.3961 6 13.3438V33.9062C6 35.8539 6.77371 37.7218 8.15093 39.0991C9.52815 40.4763 11.3961 41.25 13.3438 41.25H24.1302C26.0771 41.2496 27.944 40.4762 29.3208 39.0998L39.0998 29.3208C40.4762 27.944 41.2496 26.0771 41.25 24.1302V13.3438C41.25 11.3961 40.4763 9.52815 39.0991 8.15093C37.7218 6.77371 35.8539 6 33.9062 6H13.3438ZM8.9375 13.3438C8.9375 12.1751 9.40173 11.0544 10.2281 10.2281C11.0544 9.40173 12.1751 8.9375 13.3438 8.9375H33.9062C35.0749 8.9375 36.1956 9.40173 37.0219 10.2281C37.8483 11.0544 38.3125 12.1751 38.3125 13.3438V23.625H30.9688C29.0211 23.625 27.1532 24.3987 25.7759 25.7759C24.3987 27.1532 23.625 29.0211 23.625 30.9688V38.3125H13.3438C12.1751 38.3125 11.0544 37.8483 10.2281 37.0219C9.40173 36.1956 8.9375 35.0749 8.9375 33.9062V13.3438ZM26.5625 37.5781V30.9688C26.5625 29.8001 27.0267 28.6794 27.8531 27.8531C28.6794 27.0267 29.8001 26.5625 30.9688 26.5625H37.5781C37.4166 26.8063 37.2315 27.0325 37.02 27.244L27.244 37.0229C27.0352 37.2304 26.807 37.4173 26.5625 37.5811" fill="#18AD90"/>
<path d="M23.971 21.438C23.549 22.094 23.325 21.813 23.451 21.438C23.787 20.445 23.799 16.91 21 16.469L20.998 28C20.998 29.657 19.263 32 16 32C14.343 32 13 31.129 13 29.5C13 27.381 14.927 26.1 17 26.1C18.328 26.1 19 26.5 19 26.5V12H21C21 14.676 26.986 16.744 23.971 21.438Z" fill="#18AD90"/>
</svg>
