<svg width="174" height="47" viewBox="0 0 174 47" fill="none" xmlns="http://www.w3.org/2000/svg">
<path d="M66.656 34L66.476 14.632L61.472 31.552H57.692L52.688 14.632L52.508 34H49.52L49.736 10.42H54.272L59.6 28.816L64.892 10.42H69.428L69.644 34H66.656ZM86.9319 34H84.0519V31.48C83.4039 32.44 82.6839 33.172 81.8919 33.676C81.0999 34.18 80.2599 34.432 79.3719 34.432C77.9079 34.432 76.7559 33.928 75.9159 32.92C75.0999 31.888 74.6919 30.388 74.6919 28.42V16.432H77.7519V27.88C77.7519 29.152 77.9439 30.088 78.3279 30.688C78.7359 31.288 79.2879 31.588 79.9839 31.588C80.6319 31.588 81.3039 31.336 81.9999 30.832C82.7199 30.304 83.3439 29.584 83.8719 28.672V16.432H86.9319V34ZM97.0288 16C98.0368 16 99.2488 16.144 100.665 16.432L100.593 19.024C99.3448 18.736 98.2048 18.592 97.1728 18.592C95.0128 18.592 93.9328 19.288 93.9328 20.68V21.004C93.9328 21.436 94.0408 21.784 94.2568 22.048C94.4968 22.312 94.9168 22.588 95.5168 22.876L98.9008 24.46C100.941 25.42 101.961 26.824 101.961 28.672V29.464C101.937 31.12 101.433 32.368 100.449 33.208C99.4888 34.024 97.9648 34.432 95.8768 34.432C94.7968 34.432 93.2488 34.18 91.2328 33.676L91.3768 30.94C93.1768 31.468 94.6528 31.732 95.8048 31.732C96.9808 31.732 97.7968 31.576 98.2528 31.264C98.7088 30.928 98.9368 30.388 98.9368 29.644V29.284C98.9368 28.708 98.8168 28.252 98.5768 27.916C98.3608 27.58 97.9888 27.292 97.4608 27.052L93.9688 25.504C92.9128 25.024 92.1328 24.448 91.6288 23.776C91.1488 23.104 90.9088 22.324 90.9088 21.436V20.932C90.9568 19.3 91.4608 18.076 92.4208 17.26C93.4048 16.42 94.9408 16 97.0288 16ZM111.819 9.988C113.115 9.988 114.807 10.18 116.895 10.564L116.823 13.264C114.855 12.88 113.187 12.688 111.819 12.688C110.427 12.688 109.419 12.964 108.795 13.516C108.195 14.068 107.895 14.908 107.895 16.036V16.972C107.895 17.572 107.967 18.052 108.111 18.412C108.279 18.748 108.567 19.048 108.975 19.312C109.383 19.552 109.995 19.804 110.811 20.068L114.159 21.184C115.767 21.736 116.895 22.468 117.543 23.38C118.215 24.292 118.551 25.624 118.551 27.376V28.06C118.551 30.196 117.927 31.792 116.679 32.848C115.455 33.904 113.439 34.432 110.631 34.432C109.263 34.432 107.511 34.192 105.375 33.712L105.447 30.94C107.439 31.42 109.143 31.66 110.559 31.66C112.359 31.66 113.631 31.396 114.375 30.868C115.119 30.316 115.491 29.464 115.491 28.312V27.124C115.491 26.284 115.299 25.648 114.915 25.216C114.555 24.76 113.907 24.376 112.971 24.064L109.263 22.84C107.607 22.288 106.455 21.58 105.807 20.716C105.159 19.828 104.835 18.496 104.835 16.72V16.324C104.835 14.236 105.387 12.664 106.491 11.608C107.619 10.528 109.395 9.988 111.819 9.988ZM125.389 9.412V24.136L131.149 16.432H134.569L128.593 24.136L135.001 34H131.329L125.389 24.568V34H122.329V9.412H125.389ZM140.752 16.432V34H137.692V16.432H140.752ZM139.204 9.34C139.852 9.34 140.344 9.484 140.68 9.772C141.04 10.06 141.22 10.468 141.22 10.996V12.04C141.22 12.568 141.04 12.976 140.68 13.264C140.344 13.528 139.852 13.66 139.204 13.66C138.58 13.66 138.088 13.528 137.728 13.264C137.392 12.976 137.224 12.568 137.224 12.04V10.996C137.224 10.468 137.392 10.06 137.728 9.772C138.088 9.484 138.58 9.34 139.204 9.34ZM148.838 9.412V34H145.778V9.412H148.838ZM156.924 9.412V34H153.864V9.412H156.924ZM166.99 16C167.998 16 169.21 16.144 170.626 16.432L170.554 19.024C169.306 18.736 168.166 18.592 167.134 18.592C164.974 18.592 163.894 19.288 163.894 20.68V21.004C163.894 21.436 164.002 21.784 164.218 22.048C164.458 22.312 164.878 22.588 165.478 22.876L168.862 24.46C170.902 25.42 171.922 26.824 171.922 28.672V29.464C171.898 31.12 171.394 32.368 170.41 33.208C169.45 34.024 167.926 34.432 165.838 34.432C164.758 34.432 163.21 34.18 161.194 33.676L161.338 30.94C163.138 31.468 164.614 31.732 165.766 31.732C166.942 31.732 167.758 31.576 168.214 31.264C168.67 30.928 168.898 30.388 168.898 29.644V29.284C168.898 28.708 168.778 28.252 168.538 27.916C168.322 27.58 167.95 27.292 167.422 27.052L163.93 25.504C162.874 25.024 162.094 24.448 161.59 23.776C161.11 23.104 160.87 22.324 160.87 21.436V20.932C160.918 19.3 161.422 18.076 162.382 17.26C163.366 16.42 164.902 16 166.99 16Z" fill="#18AD90"/>
<path d="M13.3438 6C11.3961 6 9.52815 6.77371 8.15093 8.15093C6.77371 9.52815 6 11.3961 6 13.3438V33.9062C6 35.8539 6.77371 37.7218 8.15093 39.0991C9.52815 40.4763 11.3961 41.25 13.3438 41.25H24.1302C26.0771 41.2496 27.944 40.4762 29.3208 39.0998L39.0998 29.3208C40.4762 27.944 41.2496 26.0771 41.25 24.1302V13.3438C41.25 11.3961 40.4763 9.52815 39.0991 8.15093C37.7218 6.77371 35.8539 6 33.9062 6H13.3438ZM8.9375 13.3438C8.9375 12.1751 9.40173 11.0544 10.2281 10.2281C11.0544 9.40173 12.1751 8.9375 13.3438 8.9375H33.9062C35.0749 8.9375 36.1956 9.40173 37.0219 10.2281C37.8483 11.0544 38.3125 12.1751 38.3125 13.3438V23.625H30.9688C29.0211 23.625 27.1532 24.3987 25.7759 25.7759C24.3987 27.1532 23.625 29.0211 23.625 30.9688V38.3125H13.3438C12.1751 38.3125 11.0544 37.8483 10.2281 37.0219C9.40173 36.1956 8.9375 35.0749 8.9375 33.9062V13.3438ZM26.5625 37.5781V30.9688C26.5625 29.8001 27.0267 28.6794 27.8531 27.8531C28.6794 27.0267 29.8001 26.5625 30.9688 26.5625H37.5781C37.4166 26.8063 37.2315 27.0325 37.02 27.244L27.244 37.0229C27.0352 37.2304 26.807 37.4173 26.5625 37.5811" fill="#18AD90"/>
<path d="M23.971 21.438C23.549 22.094 23.325 21.813 23.451 21.438C23.787 20.445 23.799 16.91 21 16.469L20.998 28C20.998 29.657 19.263 32 16 32C14.343 32 13 31.129 13 29.5C13 27.381 14.927 26.1 17 26.1C18.328 26.1 19 26.5 19 26.5V12H21C21 14.676 26.986 16.744 23.971 21.438Z" fill="#18AD90"/>
</svg>
