<svg width="23" height="23" viewBox="0 0 23 23" fill="none" xmlns="http://www.w3.org/2000/svg">
<path fill-rule="evenodd" clip-rule="evenodd" d="M10.3501 20.7C12.7938 20.7 15.0397 19.8531 16.8103 18.4367L21.0368 22.6632C21.4859 23.1123 22.2141 23.1123 22.6632 22.6632C23.1123 22.2141 23.1123 21.4859 22.6632 21.0368L18.4367 16.8104C19.8531 15.0398 20.7001 12.7938 20.7001 10.35C20.7001 4.63385 16.0662 0 10.3501 0C4.63388 0 0 4.63385 0 10.35C0 16.0661 4.63388 20.7 10.3501 20.7ZM10.3501 2.3C5.90414 2.3 2.30001 5.9041 2.30001 10.35C2.30001 14.7959 5.90414 18.4 10.3501 18.4C12.5187 18.4 14.4871 17.5424 15.9346 16.1479C15.9649 16.1084 15.9981 16.0705 16.0343 16.0343C16.0704 15.9982 16.1084 15.9649 16.1479 15.9346C17.5425 14.4871 18.4001 12.5187 18.4001 10.35C18.4001 5.9041 14.796 2.3 10.3501 2.3Z" fill="#18AD90"/>
</svg>
