<svg width="20" height="20" viewBox="0 0 20 20" fill="none" xmlns="http://www.w3.org/2000/svg">
<g clip-path="url(#clip0_82_293)">
<path d="M17 0H3C1.34315 0 0 1.34315 0 3V17C0 18.6569 1.34315 20 3 20H17C18.6569 20 20 18.6569 20 17V3C20 1.34315 18.6569 0 17 0Z" fill="#003B69"/>
<path d="M3.39822 8.82815C3.20349 9.8917 3.26986 10.9866 3.59161 12.0189C3.91337 13.0511 4.48089 13.9898 5.24543 14.7544C6.00998 15.5189 6.94869 16.0864 7.98093 16.4082C9.01318 16.7299 10.1081 16.7963 11.1717 16.6016C15.4295 18.6719 18.3982 14.1016 16.6013 11.1719C17.4998 6.01565 12.7732 2.57815 8.8279 3.39846C8.06971 2.96959 7.19186 2.801 6.32874 2.9185C5.46562 3.03601 4.66479 3.43313 4.04884 4.04908C3.43289 4.66503 3.03576 5.46586 2.91826 6.32899C2.80075 7.19211 2.96934 8.06996 3.39822 8.82815ZM12.8123 7.18752C13.4373 8.08596 12.1873 8.78908 11.7185 8.24221C11.0935 7.53908 10.4685 7.18752 9.80447 7.22658C8.08572 7.34377 8.12478 8.78908 9.60915 8.9844C11.6404 9.2969 13.4763 9.84377 13.3201 11.6406C13.1248 13.6719 11.4842 14.2578 9.80447 14.1406C7.77322 13.9844 7.14822 13.2813 6.75759 12.5391C6.28884 11.6406 7.61697 10.7813 8.16384 11.7578C9.06228 13.2031 10.7029 13.0078 11.2107 12.4219C11.992 11.5235 11.1717 10.9766 10.3123 10.8203C9.37478 10.625 8.39822 10.4297 7.65603 10.0391C6.48415 9.41408 5.97634 6.44533 9.06228 5.93752C10.4685 5.70315 12.1482 6.13283 12.8123 7.18752Z" fill="white"/>
</g>
<defs>
<clipPath id="clip0_82_293">
<rect width="20" height="20" fill="white"/>
</clipPath>
</defs>
</svg>
