<svg width="20" height="20" viewBox="0 0 20 20" fill="none" xmlns="http://www.w3.org/2000/svg">
<path d="M0 0H20V20H0V0Z" fill="white" fill-opacity="0.01"/>
<path d="M7.08194 3.20239C7.38465 3.20239 7.66356 3.36657 7.81052 3.63125L8.82985 5.46742C8.96331 5.70784 8.9696 5.99863 8.8466 6.24459L7.8646 8.20863C7.8646 8.20863 8.14919 9.67171 9.34019 10.8627C10.5312 12.0537 11.9894 12.3334 11.9894 12.3334L13.9531 11.3515C14.1992 11.2285 14.4902 11.2348 14.7307 11.3685L16.5721 12.3923C16.8366 12.5393 17.0005 12.8181 17.0005 13.1206V15.2346C17.0005 16.3111 16.0006 17.0887 14.9806 16.7445C12.8856 16.0376 9.6336 14.6917 7.57244 12.6305C5.51127 10.5693 4.16532 7.31734 3.45843 5.22238C3.11426 4.20234 3.8918 3.20239 4.96831 3.20239H7.08194Z" fill="white" stroke="#003B69" stroke-linejoin="round"/>
</svg>
